<?xml version="1.0" encoding="utf-8"?>
<!-- Generator: Adobe Illustrator 24.3.0, SVG Export Plug-In . SVG Version: 6.00 Build 0)  -->
<svg version="1.1" id="Layer_1" focusable="false" xmlns="http://www.w3.org/2000/svg" xmlns:xlink="http://www.w3.org/1999/xlink"
	 x="0px" y="0px" viewBox="0 0 612 612" style="enable-background:new 0 0 612 612;" xml:space="preserve">
<style type="text/css">
	.st0{fill:#563D7C;}
	.st1{fill:#FFFFFF;}
</style>
<path class="st0" d="M612,510c0,56.1-45.9,102-102,102H102C45.9,612,0,566.1,0,510V102C0,45.9,45.9,0,102,0h408
	c56.1,0,102,45.9,102,102V510z"/>
<g>
</g>
<path class="st1" d="M415.1,521l-31.1-102H227.9l-31.1,102H99L250.2,91h111L513,521H415.1z M362.4,342.9
	c-28.7-92.4-44.9-144.6-48.5-156.7c-3.6-12.1-6.2-21.7-7.8-28.7c-6.4,25-24.9,86.8-55.4,185.4H362.4z"/>
</svg>
